<?xml version="1.0" standalone="no"?><!DOCTYPE svg PUBLIC "-//W3C//DTD SVG 1.1//EN" "http://www.w3.org/Graphics/SVG/1.1/DTD/svg11.dtd"><svg class="icon" width="200px" height="200.00px" viewBox="0 0 1024 1024" version="1.1" xmlns="http://www.w3.org/2000/svg"><path d="M661.944889 73.144889H146.289778a36.679111 36.679111 0 0 0-36.579556 36.565333v804.579556a36.679111 36.679111 0 0 0 36.579556 36.565333h731.420444a36.679111 36.679111 0 0 0 36.579556-36.565333v-588.8L661.944889 73.144889z" fill="#F87E0C" /><path d="M661.944889 288.910222a36.679111 36.679111 0 0 0 36.565333 36.579556h215.779556L661.944889 73.144889v215.765333z" fill="#F79341" /><path d="M475.434667 415.089778h-95.089778L256 769.834667h85.944889l27.420444-89.6h118.869334l27.420444 89.6h87.779556l-128-351.089778v-3.655111z m-49.379556 67.655111c3.655111 12.8 7.310222 23.765333 10.979556 36.565333 7.310222 23.779556 12.8 45.724444 20.110222 67.655111l9.144889 32.924445h-80.455111l9.130666-32.924445a3206.215111 3206.215111 0 0 0 31.089778-104.220444z m210.289778-67.655111h84.110222v354.744889h-84.110222V415.089778z" fill="#FFFFFF" /></svg>