<?xml version="1.0" standalone="no"?><!DOCTYPE svg PUBLIC "-//W3C//DTD SVG 1.1//EN" "http://www.w3.org/Graphics/SVG/1.1/DTD/svg11.dtd"><svg class="icon" width="200px" height="200.00px" viewBox="0 0 1024 1024" version="1.1" xmlns="http://www.w3.org/2000/svg"><path d="M661.944889 73.144889H146.289778a36.679111 36.679111 0 0 0-36.579556 36.565333v804.579556a36.679111 36.679111 0 0 0 36.579556 36.565333h731.420444a36.679111 36.679111 0 0 0 36.579556-36.565333v-588.8L661.944889 73.144889z" fill="#278EFF" /><path d="M661.944889 288.910222a36.679111 36.679111 0 0 0 36.565333 36.579556h215.779556L661.944889 73.144889v215.765333z" fill="#5CB2FF" /><path d="M365.710222 634.510222H409.6v64c-5.489778 7.324444-16.455111 10.979556-27.434667 10.979556-43.875556 0-69.475556-42.055111-69.475555-117.034667 0-71.310222 25.6-115.2 65.820444-115.2 21.944889 0 34.744889 14.634667 45.724445 27.434667l3.655111 3.655111 29.255111-51.2-1.834667-1.834667C435.2 424.248889 407.765333 409.6 376.689778 409.6 305.351111 409.6 256 486.4 256 594.289778c0 111.544889 47.544889 182.855111 120.689778 182.855111 32.910222 0 62.165333-16.455111 82.275555-43.889778V570.510222h-93.255111v64z m140.8-219.420444H563.2v354.744889h-56.689778V415.089778z m266.979556 65.820444v-65.820444H614.4v354.744889h56.689778v-140.8h87.765333V563.2h-87.765333v-82.289778h102.4z" fill="#FFFFFF" /></svg>